<svg width="254" height="40" viewBox="0 0 254 40" fill="none" xmlns="http://www.w3.org/2000/svg">
<path d="M0.479403 39L6.51634 2.63636H31.8714L30.6641 9.77415H14.098L12.8906 17.2315H28.1605L26.9531 24.3871H11.6832L10.4759 31.8622H27.0419L25.8345 39H0.479403ZM112.371 9.77415L113.579 2.63636H144.314L143.106 9.77415H132.08L127.251 39H118.586L123.415 9.77415H112.371Z" fill="#3B7EC2"/>
<path d="M46.0582 2.63636L40.0213 39H31.3388L37.3757 2.63636H46.0582ZM45.5478 39L50.0932 11.7273H58.7757L54.2303 39H45.5478ZM55.0471 8.53125C53.816 8.53125 52.8158 8.12287 52.0463 7.30611C51.2769 6.48935 50.9751 5.51278 51.1408 4.37642C51.3065 3.22822 51.8865 2.25166 52.8809 1.44673C53.8752 0.641808 54.9819 0.239347 56.2012 0.239347C57.4322 0.239347 58.4206 0.641808 59.1664 1.44673C59.9239 2.25166 60.2199 3.22822 60.0542 4.37642C59.9121 5.51278 59.3439 6.48935 58.3496 7.30611C57.3671 8.12287 56.2663 8.53125 55.0471 8.53125ZM79.8384 11.7273L78.7553 18.1193H61.2127L62.2958 11.7273H79.8384ZM61.3725 39L66.1665 10.3423C66.5098 8.23532 67.1905 6.48935 68.2085 5.1044C69.2264 3.70762 70.4989 2.66596 72.0259 1.9794C73.5529 1.28101 75.2338 0.931816 77.0685 0.931816C78.2878 0.931816 79.4182 1.02651 80.4599 1.21591C81.5015 1.39347 82.2591 1.55327 82.7326 1.69531L80.3356 8.05185C80.016 7.94531 79.6372 7.85653 79.1992 7.78551C78.7731 7.71449 78.3529 7.67898 77.9386 7.67898C76.9324 7.67898 76.2044 7.90388 75.7546 8.35369C75.3048 8.8035 75.0089 9.41903 74.8668 10.2003L70.055 39H61.3725ZM91.282 39.5149C88.4292 39.5149 86.0618 38.9527 84.1797 37.8281C82.3094 36.6918 80.9955 35.076 80.2379 32.9808C79.4804 30.8738 79.3442 28.3703 79.8295 25.4702C80.303 22.6529 81.2678 20.1908 82.7237 18.0838C84.1915 15.965 86.0381 14.3196 88.2635 13.1477C90.4889 11.964 92.9688 11.3722 95.7031 11.3722C97.6444 11.3722 99.3667 11.674 100.87 12.2777C102.373 12.8814 103.616 13.781 104.599 14.9766C105.581 16.1603 106.25 17.6162 106.605 19.3445C106.96 21.0727 106.948 23.0554 106.57 25.2926L106.232 27.4588H82.5462L83.3452 22.4162H98.9702C99.1122 21.4929 99.0353 20.6702 98.7393 19.9482C98.4434 19.2261 97.964 18.6638 97.3011 18.2614C96.6501 17.8471 95.8511 17.6399 94.9041 17.6399C93.9453 17.6399 93.0457 17.8648 92.2053 18.3146C91.3767 18.7526 90.6723 19.3445 90.0923 20.0902C89.5123 20.8359 89.1335 21.6764 88.956 22.6115L88.0149 27.7784C87.8255 28.9266 87.8788 29.9091 88.1747 30.7259C88.4706 31.5426 88.9796 32.17 89.7017 32.608C90.4238 33.0341 91.353 33.2472 92.4893 33.2472C93.2469 33.2472 93.9572 33.1465 94.62 32.9453C95.2829 32.7322 95.8748 32.4186 96.3956 32.0043C96.9283 31.5781 97.3603 31.0632 97.6918 30.4595L105.611 30.6903C104.972 32.4777 103.983 34.0343 102.646 35.3601C101.308 36.674 99.6745 37.6979 97.745 38.4318C95.8274 39.1539 93.6731 39.5149 91.282 39.5149ZM155.282 39.5149C152.406 39.5149 150.033 38.9231 148.162 37.7393C146.304 36.5556 144.996 34.9044 144.238 32.7855C143.481 30.6667 143.333 28.2045 143.794 25.3991C144.256 22.6056 145.209 20.1553 146.653 18.0483C148.097 15.9413 149.944 14.3018 152.193 13.13C154.442 11.9581 156.993 11.3722 159.846 11.3722C162.71 11.3722 165.072 11.964 166.93 13.1477C168.8 14.3314 170.114 15.9827 170.872 18.1016C171.641 20.2204 171.795 22.6884 171.333 25.5057C170.872 28.2992 169.913 30.7495 168.457 32.8565C167.001 34.9517 165.154 36.5852 162.917 37.7571C160.68 38.929 158.135 39.5149 155.282 39.5149ZM156.259 32.9631C157.324 32.9631 158.277 32.6435 159.118 32.0043C159.97 31.3651 160.686 30.4714 161.266 29.3232C161.846 28.175 162.26 26.8433 162.509 25.3281C162.757 23.8366 162.781 22.5286 162.58 21.4041C162.391 20.2678 161.988 19.3859 161.373 18.7585C160.757 18.1193 159.922 17.7997 158.869 17.7997C157.804 17.7997 156.845 18.1252 155.993 18.7763C155.14 19.4155 154.424 20.3092 153.844 21.4574C153.276 22.5937 152.868 23.9254 152.619 25.4524C152.37 26.9439 152.341 28.2519 152.53 29.3764C152.72 30.5009 153.128 31.3828 153.755 32.022C154.383 32.6494 155.217 32.9631 156.259 32.9631ZM193.075 27.228L195.668 11.7273H204.332L199.787 39H191.513L192.347 33.9219H192.063C191.223 35.5909 189.986 36.9167 188.352 37.8991C186.719 38.8698 184.878 39.3551 182.83 39.3551C180.972 39.3551 179.409 38.929 178.143 38.0767C176.876 37.2244 175.977 36.0348 175.444 34.5078C174.923 32.969 174.828 31.1697 175.16 29.1101L178.072 11.7273H186.754L184.144 27.4055C183.919 28.8852 184.115 30.0511 184.73 30.9034C185.357 31.7557 186.34 32.1818 187.678 32.1818C188.542 32.1818 189.353 31.9924 190.11 31.6136C190.868 31.223 191.507 30.6607 192.028 29.9268C192.56 29.1811 192.91 28.2815 193.075 27.228ZM205.313 39L209.859 11.7273H218.293L217.458 16.6989H217.742C218.535 14.8996 219.571 13.562 220.85 12.6861C222.128 11.7983 223.513 11.3544 225.004 11.3544C225.407 11.3544 225.809 11.384 226.212 11.4432C226.626 11.4905 227.017 11.5616 227.384 11.6562L226.105 19.2202C225.703 19.0663 225.176 18.9538 224.525 18.8828C223.874 18.8 223.282 18.7585 222.749 18.7585C221.72 18.7585 220.761 18.9893 219.873 19.451C218.997 19.9008 218.251 20.5341 217.636 21.3509C217.032 22.1558 216.636 23.1027 216.446 24.1918L213.996 39H205.313ZM253.258 20.0547L245.428 20.2678C245.44 19.6877 245.31 19.1787 245.037 18.7408C244.765 18.291 244.38 17.9418 243.883 17.6932C243.386 17.4446 242.794 17.3203 242.108 17.3203C240.995 17.3203 239.995 17.5689 239.107 18.0661C238.231 18.5632 237.74 19.2083 237.633 20.0014C237.55 20.4276 237.669 20.8004 237.988 21.12C238.308 21.4278 239.018 21.7 240.119 21.9368L245.233 22.9311C247.86 23.4519 249.766 24.3575 250.95 25.6477C252.145 26.9261 252.572 28.6188 252.228 30.7259C251.921 32.5251 251.127 34.0817 249.849 35.3956C248.583 36.7095 246.967 37.7275 245.002 38.4496C243.049 39.1598 240.888 39.5149 238.521 39.5149C234.52 39.5149 231.502 38.71 229.466 37.1001C227.441 35.4785 226.494 33.33 226.625 30.6548L235.076 30.4418C235.112 31.4479 235.449 32.2055 236.088 32.7145C236.739 33.2116 237.621 33.4721 238.734 33.4957C239.953 33.5194 241.007 33.2649 241.895 32.7322C242.782 32.1996 243.279 31.5426 243.386 30.7614C243.457 30.2524 243.285 29.8558 242.871 29.5717C242.469 29.2876 241.717 29.0331 240.616 28.8082L236 27.9027C233.348 27.3937 231.431 26.4349 230.247 25.0263C229.075 23.6058 228.672 21.7947 229.039 19.593C229.347 17.8411 230.069 16.3556 231.206 15.1364C232.354 13.9053 233.851 12.9702 235.698 12.331C237.556 11.6918 239.675 11.3722 242.054 11.3722C245.866 11.3722 248.742 12.1475 250.684 13.6982C252.637 15.237 253.495 17.3558 253.258 20.0547Z" fill="#FFDC56"/>
</svg>
