<svg width="15" height="15" viewBox="0 0 15 15" fill="none" xmlns="http://www.w3.org/2000/svg">
<path d="M12.4466 10.3422C12.1193 10.3434 11.7956 10.408 11.4949 10.5321C11.1943 10.6561 10.9229 10.8371 10.697 11.0642L4.77281 8.22296C4.91854 7.79946 4.91854 7.3423 4.77281 6.91879L10.7068 4.02632C11.1318 4.4556 11.7082 4.71807 12.3239 4.76274C12.9396 4.80741 13.5507 4.63107 14.0383 4.26801C14.5259 3.90495 14.8552 3.3811 14.9623 2.79827C15.0694 2.21545 14.9465 1.61529 14.6176 1.11445C14.2887 0.613611 13.7772 0.24787 13.1826 0.0883152C12.588 -0.0712398 11.9527 -0.0132097 11.4003 0.251126C10.8478 0.515462 10.4176 0.96722 10.1934 1.51859C9.9691 2.06996 9.96674 2.68156 10.1868 3.23451L4.31112 6.09903C3.99379 5.72708 3.56419 5.4583 3.08122 5.32953C2.59825 5.20076 2.08555 5.21831 1.61339 5.37976C1.14123 5.54121 0.732735 5.83867 0.443892 6.23136C0.155049 6.62405 0 7.09275 0 7.57321C0 8.05366 0.155049 8.52236 0.443892 8.91505C0.732735 9.30774 1.14123 9.6052 1.61339 9.76665C2.08555 9.92811 2.59825 9.94565 3.08122 9.81688C3.56419 9.68811 3.99379 9.41933 4.31112 9.04739L10.1722 11.8746C10.0731 12.1295 10.0221 12.3992 10.0215 12.6711C10.0215 13.1317 10.164 13.582 10.431 13.965C10.698 14.348 11.0776 14.6465 11.5216 14.8227C11.9656 14.999 12.4542 15.0451 12.9255 14.9552C13.3969 14.8654 13.8299 14.6436 14.1697 14.3179C14.5096 13.9922 14.741 13.5772 14.8347 13.1255C14.9285 12.6737 14.8804 12.2054 14.6965 11.7799C14.5125 11.3544 14.2011 10.9906 13.8015 10.7347C13.4019 10.4788 12.9321 10.3422 12.4515 10.3422H12.4466Z" fill="#C8C1C1"/>
</svg>
